# xmcd CD database file
#
# Track frame offsets:
#	150
#	13894
#	34167
#	45185
#	54128
#	63885
#	73652
#	92822
#	105969
#	117535
#	127628
#	138699
#	151417
#	167260
#	185317
#	195088
#	221038
#	233586
#	250685
#	262277
#	275559
#	285187
#	297449
#	310227
#	322383
#
# Disc length: 4483 seconds
#
# Revision: 1
# Processed by: cddbd v1.5.1PL0 Copyright (c) Steve Scherf et al.
# Submitted via: CDex 1.51
#
DISCID=60118119
DTITLE=Various Artist - 25 Country Golden Hits
DYEAR=2001
DGENRE=Country
TTITLE0=Kenny Rogers - I'm Gonna Sing You A Sad Song Suyie
TTITLE1=Gram Parsons and Emmylou Harris - Love Hurts
TTITLE2=Dolly Parton - Honky Tonk Angels
TTITLE3=Sandy Posey - Born A Woman
TTITLE4=Dave Dudley - Cowboy Boots
TTITLE5=Freddy Fender - Sugar Coated Love
TTITLE6=Dave Travis - Swwet Country Music
TTITLE7=Donna Fargo - Daddy
TTITLE8=Kitty Wells - It Wasn't Good Who Made (Honky Tonk Angels)
TTITLE9=Buck Owens - Rhythm and Booze
TTITLE10=Carl Perkins - Dixie Fried
TTITLE11=Kitty Wells - Making Believe
TTITLE12=Merle Haggard - Today I Started Lovin' You Again
TTITLE13=Ricky Nelson - Garden Party
TTITLE14=Faron Young - Country Girl
TTITLE15=Brenda Lee - Medley: Jambalaya, Is It True, My Whole World Is Falling Down, Sweet Nothin'
TTITLE16=Freddy Fender - Tell It Like It Is
TTITLE17=Tanya Tucker - The night They Drove, Ole Dixie Down
TTITLE18=Johnny Paycheck - Take This Job And Shove It
TTITLE19=Roy Acuf - Tennessee Waltz
TTITLE20=Ned Miller - From A Jac To A King
TTITLE21=Loretta Lynn - Blue Kentucky Girl
TTITLE22=Frankie Laine - Moonlight Gambier
TTITLE23=Billie Jo Spears - Look What They've Done, To My Song Ma
TTITLE24=Johnny Paycheck - Someone To Give My Love To
EXTD=YEAR: 2001
EXTT0=
EXTT1=
EXTT2=
EXTT3=
EXTT4=
EXTT5=
EXTT6=
EXTT7=
EXTT8=
EXTT9=
EXTT10=
EXTT11=
EXTT12=
EXTT13=
EXTT14=
EXTT15=
EXTT16=
EXTT17=
EXTT18=
EXTT19=
EXTT20=
EXTT21=
EXTT22=
EXTT23=
EXTT24=
PLAYORDER=
